HIERARCHY
ROOT SimulationBone
{
	OFFSET 0.000000 0.000000 0.000000
	CHANNELS 6 Xposition Yposition Zposition Zrotation Yrotation Xrotation 
	JOINT Hips
	{
		OFFSET 0.000000 0.000000 0.000000
		CHANNELS 6 Xposition Yposition Zposition Zrotation Yrotation Xrotation 
		JOINT RightUpLeg
		{
			OFFSET 0.103457 1.857818 10.548502
			CHANNELS 3 Zrotation Yrotation Xrotation
			JOINT RightLeg
			{
				OFFSET 43.500000 -0.000011 -0.000004
				CHANNELS 3 Zrotation Yrotation Xrotation
				JOINT RightFoot
				{
					OFFSET 42.372192 -0.000004 -0.000008
					CHANNELS 3 Zrotation Yrotation Xrotation
					JOINT RightToe
					{
						OFFSET 17.300014 0.000006 0.000001
						CHANNELS 3 Zrotation Yrotation Xrotation
						End Site
						{
							OFFSET 0.000000 0.000000 0.000000
						}
					}
				}
			}
		}
		JOINT LeftUpLeg
		{
			OFFSET 0.103457 1.857817 -10.548505
			CHANNELS 3 Zrotation Yrotation Xrotation
			JOINT LeftLeg
			{
				OFFSET 43.500046 -0.000004 0.000011
				CHANNELS 3 Zrotation Yrotation Xrotation
				JOINT LeftFoot
				{
					OFFSET 42.372257 0.000000 0.000015
					CHANNELS 3 Zrotation Yrotation Xrotation
					JOINT LeftToe
					{
						OFFSET 17.300003 -0.000000 0.000002
						CHANNELS 3 Zrotation Yrotation Xrotation
						End Site
						{
							OFFSET 0.000000 0.000000 0.000000
						}
					}
				}
			}
		}
		JOINT Spine
		{
			OFFSET 6.901961 -2.603721 -0.000001
			CHANNELS 3 Zrotation Yrotation Xrotation
			JOINT Spine1
			{
				OFFSET 12.588108 0.000002 -0.000001
				CHANNELS 3 Zrotation Yrotation Xrotation
				JOINT Spine2
				{
					OFFSET 12.343199 -0.000020 0.000006
					CHANNELS 3 Zrotation Yrotation Xrotation
					JOINT Neck
					{
						OFFSET 25.832905 0.000017 0.000000
						CHANNELS 3 Zrotation Yrotation Xrotation
						JOINT Head
						{
							OFFSET 11.766604 -0.000006 0.000004
							CHANNELS 3 Zrotation Yrotation Xrotation
							End Site
							{
								OFFSET 0.000000 0.000000 0.000000
							}
						}
					}
					JOINT RightShoulder
					{
						OFFSET 19.745903 -1.480350 6.000100
						CHANNELS 3 Zrotation Yrotation Xrotation
						JOINT RightArm
						{
							OFFSET 11.284130 -0.000016 -0.000016
							CHANNELS 3 Zrotation Yrotation Xrotation
							JOINT RightForeArm
							{
								OFFSET 33.000046 0.000004 0.000031
								CHANNELS 3 Zrotation Yrotation Xrotation
								JOINT RightHand
								{
									OFFSET 25.199999 0.000027 0.000001
									CHANNELS 3 Zrotation Yrotation Xrotation
									End Site
									{
										OFFSET 0.000000 0.000000 0.000000
									}
								}
							}
						}
					}
					JOINT LeftShoulder
					{
						OFFSET 19.746094 -1.480375 -6.000080
						CHANNELS 3 Zrotation Yrotation Xrotation
						JOINT LeftArm
						{
							OFFSET 11.284131 -0.000016 -0.000017
							CHANNELS 3 Zrotation Yrotation Xrotation
							JOINT LeftForeArm
							{
								OFFSET 33.000095 0.000009 0.000020
								CHANNELS 3 Zrotation Yrotation Xrotation
								JOINT LeftHand
								{
									OFFSET 25.199789 0.000132 0.000423
									CHANNELS 3 Zrotation Yrotation Xrotation
									End Site
									{
										OFFSET 0.000000 0.000000 0.000000
									}
								}
							}
						}
					}
				}
			}
		}
	}
}
MOTION
Frames: 10
Frame Time: 0.033333
273.021053 0.000000 -413.718767 0.000000 60.435794 0.000000 -3.181424 77.246658 0.371640 93.422534 -1.676759 -173.821358 135.959915 -3.315498 163.310178 -33.040777 0.131548 -7.325856 70.512025 5.253916 -0.127445 21.454560 0.003104 0.000018 176.476925 -1.034500 164.587751 -80.456712 -0.655801 -5.259737 71.136741 5.718376 5.534720 21.454553 -0.003090 0.000002 12.388583 -0.550464 -0.620054 14.770714 -1.017071 -1.305395 14.452655 -1.025075 -1.299237 23.776502 11.996538 15.858972 -18.456382 -24.016555 25.570864 -165.261481 -70.121017 -16.551521 18.443806 50.971096 34.144112 -89.057955 -5.009747 2.655098 -26.204067 -8.289071 47.210182 -163.585011 80.421475 18.229008 -10.928547 -49.984663 -3.132539 -122.268391 0.188611 -3.711655 -3.136353 4.438542 -28.322467 
274.202175 0.000000 -420.787869 0.000000 63.919624 0.000000 -2.135111 75.972000 -0.170252 96.023013 -2.527092 -177.326227 136.320754 -2.350218 164.418964 -44.377498 -0.778266 -6.392707 65.698148 7.227270 6.812336 21.454557 0.003110 0.000017 177.258613 0.151501 165.193234 -86.618369 -2.065207 -4.946750 74.895066 5.837399 7.152715 21.454541 -0.003093 0.000005 12.305439 -0.938364 -0.773232 14.612677 -1.771316 -1.659088 14.294549 -1.781442 -1.648372 23.657685 9.765806 16.328641 -18.015903 -24.124486 26.087619 -164.038563 -69.308238 -17.819581 18.787981 50.570499 31.823381 -90.419410 -3.955201 2.642110 -25.035560 -8.250095 45.682460 -170.419913 80.814252 11.292988 -11.906979 -50.390318 -0.928080 -129.009706 0.240536 -3.974511 -5.430033 4.274004 -32.401741 
275.281997 0.000000 -427.678864 0.000000 67.319222 0.000000 -1.047024 75.098747 -0.663595 98.761890 -3.362304 179.598511 137.868639 -0.972702 165.051644 -56.219803 -1.968062 -7.241064 74.998619 7.304933 7.476870 21.454563 0.003109 0.000017 176.036187 1.061401 165.915144 -92.732952 -3.060879 -1.796874 76.534735 3.642260 7.624725 21.454562 -0.003098 -0.000001 12.511775 -1.319751 -0.881970 15.035574 -2.513402 -1.928626 14.717340 -2.525137 -1.913423 21.950959 7.924864 16.688232 -18.035698 -24.207992 26.643101 -166.730723 -67.901882 -15.045088 13.558709 49.642296 25.354098 -89.918225 -4.082384 2.628632 -24.362125 -10.031216 43.310885 -178.856604 79.865716 2.720971 -12.512378 -51.253965 1.986538 -133.479204 0.458417 -4.150908 -9.796654 5.210204 -36.652223 
276.256853 0.000000 -434.395441 0.000000 70.642716 0.000000 -0.278300 74.738327 -1.027697 100.901577 -3.761130 177.390579 141.387511 1.218903 163.560395 -63.186278 -1.193491 -7.187270 83.049431 6.643899 7.775254 21.454558 0.003110 0.000018 172.214628 1.190189 166.415729 -97.694866 -3.436193 1.639850 76.561059 1.073318 7.197640 21.454557 -0.003095 -0.000001 12.710123 -1.540840 -0.956648 15.439690 -2.939942 -2.111310 15.121368 -2.952766 -2.093527 20.448589 6.687620 16.927973 -18.159569 -24.392052 27.067789 -171.099927 -66.925001 -10.519091 5.244092 48.328694 17.940091 -88.079961 -5.344290 2.634938 -24.363015 -10.936439 43.698526 178.371825 78.530319 -0.120002 -12.361588 -53.122961 3.048542 -133.445012 0.777123 -4.171763 -13.081720 6.282939 -39.558400 
277.123077 0.000000 -440.941285 0.000000 73.898475 0.000000 -0.037051 75.169273 -1.228498 101.945693 -4.009517 176.629133 145.622720 4.135409 162.417937 -66.039569 0.067133 -6.581834 88.635180 5.762828 7.915300 21.454557 0.003109 0.000015 166.269481 1.003690 167.274584 -99.581337 -3.532030 4.610480 76.712942 -1.059102 7.213134 21.454548 -0.003081 -0.000009 12.692599 -1.588123 -1.250107 15.413099 -2.995216 -2.701809 15.094904 -3.011618 -2.683680 19.976480 6.266319 17.300089 -18.169953 -24.924817 27.674134 -174.837393 -67.414835 -6.648991 -1.964705 47.765507 12.021106 -87.280426 -6.252257 2.662882 -24.766247 -9.781860 46.876428 -179.771959 77.826345 1.756968 -11.463537 -56.284075 2.229683 -128.409797 1.168384 -4.016430 -11.658224 5.326199 -42.284581 
277.877001 0.000000 -447.320084 0.000000 77.094858 0.000000 -0.042356 76.513924 -1.251978 102.050731 -3.458333 177.103678 150.675421 6.414508 163.652398 -65.657912 0.218203 -5.631993 92.331611 4.929622 8.697419 21.454562 0.003092 0.000015 159.899988 0.690801 168.811800 -96.799265 -3.350837 6.188579 77.209797 -2.564625 6.078480 21.454557 -0.003091 0.000004 12.508434 -1.361829 -1.770716 15.047882 -2.481370 -3.704508 14.730179 -2.503809 -3.689487 19.772078 6.317258 17.947835 -17.849653 -25.585009 28.511815 -177.009584 -69.099911 -4.420769 -6.065088 48.558103 7.914201 -89.131243 -5.393361 2.685193 -24.334820 -8.768551 48.257192 -177.288857 77.542434 4.282974 -9.326038 -59.558997 0.212041 -120.672299 1.709372 -3.753346 -5.096128 2.437768 -48.175469 
278.514958 0.000000 -453.535524 0.000000 80.240029 0.000000 -0.335160 78.453377 -1.136579 101.472738 -2.682409 177.619599 156.077759 7.623312 165.957150 -63.002280 -0.503505 -4.399187 94.063323 4.111788 9.802258 21.454557 0.003115 0.000018 154.487199 0.760304 169.647023 -89.227474 -2.750783 6.859529 76.926044 -3.299793 5.319456 21.454557 -0.003099 0.000006 12.266630 -1.051237 -2.299937 14.559527 -1.804200 -4.714520 14.242433 -1.832740 -4.703572 18.954185 6.313905 18.708125 -17.231963 -26.083856 29.330816 -177.577050 -70.759640 -3.857584 -7.601096 49.912393 5.831105 -92.850480 -3.161668 2.695334 -22.304705 -9.969648 44.718393 -176.171670 77.069116 5.417008 -5.026206 -61.275895 -3.719735 -112.801892 2.390134 -3.474732 0.991220 1.422756 -56.809473 
279.033283 0.000000 -459.591291 0.000000 83.341818 0.000000 -0.663322 81.007584 -1.000106 100.411558 -1.528922 177.654055 161.798261 7.698199 168.188094 -58.303915 -1.182533 -3.010099 93.509251 3.399348 10.875404 21.454560 0.003092 0.000017 150.949052 0.808899 169.933262 -76.925620 -2.285441 7.294696 76.567302 -3.536355 5.744565 21.454553 -0.003094 0.000001 12.009831 -0.652028 -2.586779 14.029962 -0.985056 -5.233660 13.713256 -1.016726 -5.227651 17.710911 6.282728 19.395108 -16.773918 -26.511132 30.093209 -177.268681 -71.649490 -4.186878 -8.053909 51.026410 6.860188 -96.780721 -2.109411 2.797855 -19.709419 -12.003160 39.041143 -174.999869 76.398104 6.605979 0.913769 -61.135623 -9.562008 -105.174306 3.067135 -3.192345 1.409663 4.166695 -61.011525 
279.428309 0.000000 -465.491074 0.000000 86.407605 0.000000 -0.866241 83.799294 -0.869241 99.051650 -0.425935 177.426747 167.134551 7.338506 170.132595 -52.821971 -1.545251 -1.747401 89.950395 3.059328 11.640771 21.454555 0.003108 0.000015 150.260938 1.218001 170.203642 -59.886293 -2.518041 6.815847 75.359390 -2.922182 6.648676 21.454551 -0.003086 0.000001 11.708058 -0.259401 -2.669824 13.408211 -0.207172 -5.351578 13.091607 -0.239589 -5.350247 16.797838 6.603126 19.957529 -16.759023 -26.943611 30.851609 -176.661204 -71.909359 -4.815115 -7.582702 51.908994 8.886405 -100.226510 -1.309821 2.896206 -17.777681 -11.825240 35.833652 -173.066079 75.995724 8.578034 6.972112 -60.226170 -15.832368 -97.405724 3.684706 -2.891957 -1.220159 8.745921 -55.802912 
279.696369 0.000000 -471.238557 0.000000 89.444191 0.000000 -0.847448 86.310493 -0.675883 97.576703 0.978878 177.642932 171.983125 6.642502 172.828047 -47.515563 -1.401977 -0.842327 85.500055 2.913246 11.535180 21.454555 0.003115 0.000019 152.648991 1.802094 169.692771 -39.557396 -2.069344 6.581124 74.132633 -3.104983 5.412553 21.454551 -0.003088 0.000001 11.333195 0.193797 -2.678968 12.638007 0.679442 -5.320609 12.321379 0.647207 -5.324608 16.424513 7.446148 20.275406 -16.826794 -27.183617 31.316592 -175.531682 -71.951637 -5.976920 -6.051400 52.537009 11.793515 -103.304801 -0.745323 2.993981 -16.459989 -9.108532 35.461727 -171.544367 76.030285 10.134040 13.212798 -59.379527 -21.663649 -90.542804 4.145106 -2.619086 -1.255440 11.905147 -44.356539 
